<svg id="Layer_1" enable-background="new 0 0 512 512" height="512" viewBox="0 0 512 512" width="512" xmlns="http://www.w3.org/2000/svg"><g><path clip-rule="evenodd" d="m25.484 7.158h336.022c14.031 0 25.484 11.481 25.484 25.484v446.717c0 14.032-11.453 25.484-25.484 25.484h-336.022c-14.003-.001-25.484-11.453-25.484-25.485v-446.716c0-14.004 11.481-25.484 25.484-25.484z" fill="#f9f6f6" fill-rule="evenodd"/><path clip-rule="evenodd" d="m356.999 98.944h29.992v185.445h-29.992z" fill="#e2d8ec" fill-rule="evenodd"/><path clip-rule="evenodd" d="m188.903 436.895c74.354 0 135.016-60.634 135.016-134.987 0-74.382-60.662-135.016-135.016-135.016-74.353 0-134.987 60.633-134.987 135.016 0 74.353 60.634 134.987 134.987 134.987z" fill="#d5c6e4" fill-rule="evenodd"/><path clip-rule="evenodd" d="m188.903 166.892c74.581 0 135.016 60.435 135.016 135.016 0 74.552-60.436 134.987-135.016 134.987-5.13 0-10.176-.284-15.165-.851 67.437-7.54 119.849-64.715 119.849-134.137 0-69.45-52.412-126.626-119.849-134.166 4.989-.537 10.035-.849 15.165-.849z" fill="#c6b4da" fill-rule="evenodd"/><path clip-rule="evenodd" d="m188.903 387.827c47.34 0 85.948-38.608 85.948-85.919 0-47.339-38.608-85.948-85.948-85.948-47.339 0-85.919 38.608-85.919 85.948 0 47.31 38.58 85.919 85.919 85.919z" fill="#9dc6fb" fill-rule="evenodd"/><path clip-rule="evenodd" d="m188.903 215.96c47.481 0 85.948 38.467 85.948 85.948 0 47.452-38.466 85.919-85.948 85.919-5.102 0-10.12-.425-14.995-1.304 40.309-7.087 70.952-42.293 70.952-84.615 0-42.35-30.643-77.557-70.952-84.644 4.875-.85 9.893-1.304 14.995-1.304z" fill="#80b4fb" fill-rule="evenodd"/><path clip-rule="evenodd" d="m0 98.944h386.991v-66.302c0-14.003-11.453-25.484-25.484-25.484h-336.023c-14.003 0-25.484 11.48-25.484 25.484z" fill="#e2d8ec" fill-rule="evenodd"/><path clip-rule="evenodd" d="m356.999 98.944h29.992v-66.302c0-14.003-11.453-25.484-25.484-25.484h-29.991c14.004 0 25.483 11.481 25.483 25.484z" fill="#d5c6e4" fill-rule="evenodd"/><path clip-rule="evenodd" d="m233.266 228.262c-12.954-7.795-28.12-12.302-44.363-12.302-16.214 0-31.408 4.507-44.362 12.302v27.582c0 15.42 12.643 28.064 28.063 28.064h32.628c15.42 0 28.035-12.643 28.035-28.064v-27.582z" fill="#f9f6f6" fill-rule="evenodd"/><path clip-rule="evenodd" d="m233.266 228.262c-12.954-7.795-28.12-12.302-44.363-12.302-5.102 0-10.12.454-14.995 1.304 6.917 1.219 13.521 3.26 19.758 6.009 10.743 4.762 9.609 3.515 9.609 14.4v18.17c0 15.42-12.615 28.064-28.035 28.064h29.991c15.42 0 28.035-12.643 28.035-28.064z" fill="#e2d8ec" fill-rule="evenodd"/><path d="m82.971 60.563c-4.138 0-7.483-3.373-7.483-7.512s3.345-7.512 7.483-7.512h8.05c4.139 0 7.483 3.374 7.483 7.512 0 4.139-3.345 7.512-7.483 7.512z" fill="#78c2a4"/><path d="m129.262 60.563c-4.139 0-7.512-3.373-7.512-7.512s3.374-7.512 7.512-7.512h8.022c4.139 0 7.512 3.374 7.512 7.512 0 4.139-3.373 7.512-7.512 7.512z" fill="#78c2a4"/><path d="m36.709 60.563c-4.139 0-7.483-3.373-7.483-7.512s3.345-7.512 7.483-7.512h8.022c4.167 0 7.512 3.374 7.512 7.512 0 4.139-3.345 7.512-7.512 7.512z" fill="#dd636e"/><path d="m283.553 60.563c-4.139 0-7.483-3.373-7.483-7.512s3.345-7.512 7.483-7.512h67.125c4.139 0 7.484 3.374 7.484 7.512 0 4.139-3.346 7.512-7.484 7.512z" fill="#c6b4da"/><g clip-rule="evenodd" fill-rule="evenodd"><path d="m310.965 504.842h181.079c10.147 0 18.368-9.241 18.368-18.369 0-9.099-5.216-14.882-12.416-17.376-1.417-.511-1.757-1.333 0-1.984 7.172-2.636 12.416-8.277 12.416-17.376 0-9.1-8.221-18.369-18.368-18.369l-93.204-9.609-87.875 9.609c-20.212 0-36.767 16.526-36.767 36.738 0 20.21 16.555 36.736 36.767 36.736z" fill="#ffe07d"/><path d="m310.965 431.367h181.079c10.147 0 18.368-9.269 18.368-18.368 0-9.128-5.216-14.883-12.416-17.405-1.417-.482-1.757-1.304 0-1.956 7.172-2.636 12.416-8.277 12.416-17.405 0-9.099-8.221-18.369-18.368-18.369l-89.576-9.581-91.503 9.581c-20.127 2.126-36.767 16.555-36.767 36.766 0 20.183 16.555 36.737 36.767 36.737z" fill="#95d6a4"/><path d="m312.523 357.864h181.107c10.148 0 18.369-9.269 18.369-18.368s-5.216-14.882-12.416-17.376c-1.417-.511-1.758-1.333 0-1.984 7.172-2.637 12.416-8.278 12.416-17.377 0-9.127-8.221-18.369-18.369-18.369h-.028-181.079c-20.184 0-36.737 16.526-36.737 36.738 0 20.21 16.554 36.736 36.737 36.736z" fill="#dd636e"/><path d="m493.631 357.864c10.148 0 18.369-9.269 18.369-18.368s-5.216-14.882-12.416-17.376c-1.417-.511-1.758-1.333 0-1.984 7.172-2.637 12.416-8.278 12.416-17.377 0-9.127-8.221-18.369-18.369-18.369h-29.963c10.149 0 18.342 9.27 18.342 18.369s-5.273 14.74-12.444 17.377c-1.73.651-1.391 1.474 0 1.984 7.228 2.494 12.444 8.277 12.444 17.376s-8.221 18.368-18.37 18.368z" fill="#dd636e"/><path d="m508.712 328.61c-2.211-3.033-5.415-5.216-9.128-6.491-1.417-.511-1.758-1.333 0-1.984 3.685-1.361 6.859-3.487 9.1-6.52h-180.966c-4.139 0-7.512 3.373-7.512 7.512s3.373 7.483 7.512 7.483z" fill="#da4a54"/><path d="m492.044 431.367c10.147 0 18.368-9.269 18.368-18.368 0-9.128-5.216-14.883-12.416-17.405-1.417-.482-1.757-1.304 0-1.956 7.172-2.636 12.416-8.277 12.416-17.405 0-9.099-8.221-18.369-18.368-18.369h-29.963c10.148.028 18.341 9.27 18.341 18.369 0 9.128-5.244 14.769-12.445 17.405-1.729.652-1.389 1.474 0 1.956 7.229 2.522 12.445 8.277 12.445 17.405 0 9.099-8.221 18.368-18.369 18.368z" fill="#78c2a4"/><path d="m507.124 402.113c-2.211-3.062-5.414-5.216-9.128-6.52-1.417-.482-1.757-1.304 0-1.956 3.686-1.361 6.86-3.515 9.1-6.52h-179.378c-4.139 0-7.512 3.345-7.512 7.483 0 4.167 3.373 7.512 7.512 7.512h179.406z" fill="#64aa91"/><path d="m492.044 504.842c10.147 0 18.368-9.241 18.368-18.369 0-9.099-5.216-14.882-12.416-17.376-1.417-.511-1.757-1.333 0-1.984 7.172-2.636 12.416-8.277 12.416-17.376 0-9.1-8.221-18.369-18.368-18.369h-29.963c10.148.028 18.341 9.27 18.341 18.369s-5.244 14.74-12.445 17.376c-1.729.652-1.389 1.474 0 1.984 7.229 2.494 12.445 8.277 12.445 17.376 0 9.128-8.221 18.369-18.369 18.369z" fill="#ffd064"/><path d="m507.124 475.617c-2.211-3.061-5.414-5.244-9.128-6.52-1.417-.511-1.757-1.333 0-1.984 3.686-1.332 6.86-3.487 9.1-6.491h-179.378c-4.139 0-7.512 3.345-7.512 7.483s3.373 7.512 7.512 7.512z" fill="#e59b6c"/><path d="m57.544 183.985c15.194 0 27.525-12.302 27.525-27.524 0-15.194-12.331-27.525-27.525-27.525-15.222 0-27.553 12.331-27.553 27.525 0 15.222 12.331 27.524 27.553 27.524zm271.931 0c-15.222 0-27.524-12.302-27.524-27.524 0-15.194 12.303-27.525 27.524-27.525 15.194 0 27.524 12.331 27.524 27.525 0 15.222-12.33 27.524-27.524 27.524z" fill="#e2d8ec"/><path d="m57.544 183.985c15.194 0 27.525-12.302 27.525-27.524 0-15.194-12.331-27.525-27.525-27.525-5.556 0-10.687 1.644-15.023 4.45 7.568 4.904 12.529 13.408 12.529 23.075 0 9.666-4.96 18.17-12.529 23.102 4.336 2.806 9.467 4.422 15.023 4.422zm271.931 0c-5.527 0-10.687-1.616-14.995-4.422 7.54-4.932 12.529-13.436 12.529-23.102 0-9.667-4.989-18.17-12.529-23.075 4.309-2.806 9.468-4.45 14.995-4.45 15.194 0 27.524 12.331 27.524 27.525 0 15.222-12.33 27.524-27.524 27.524z" fill="#d5c6e4"/></g></g></svg>